<?xml version="1.0" encoding="UTF-8"?>
<svg id="Livello_1" data-name="Livello 1" xmlns="http://www.w3.org/2000/svg" viewBox="0 0 282.77 175">
  <defs>
    <style>
      .cls-1 {
        fill: #6f4e27;
      }

      .cls-2 {
        fill: #a6c720;
      }
    </style>
  </defs>
  <g>
    <path class="cls-1" d="M74.55,170.92v-14.3h1.54v14.3h-1.54ZM75.56,158.01v-1.39h8.29v1.39h-8.29ZM75.56,164.27v-1.35h7.75v1.35h-7.75ZM75.56,170.92v-1.39h8.42v1.39h-8.42Z"/>
    <path class="cls-1" d="M97.18,170.92v-14.3h1.1l.44,1.81v12.49h-1.54ZM107.07,170.92l-9.02-12.26.23-2.04,9.02,12.26-.23,2.04ZM107.07,170.92l-.44-1.72v-12.57h1.54v14.3h-1.1Z"/>
    <path class="cls-1" d="M128.66,171.12c-1.01,0-1.96-.19-2.84-.57-.88-.38-1.64-.9-2.28-1.57-.64-.66-1.15-1.44-1.52-2.34-.37-.89-.55-1.86-.55-2.9s.18-2,.55-2.89c.37-.89.88-1.66,1.54-2.34.66-.67,1.43-1.19,2.31-1.57.88-.37,1.84-.56,2.88-.56,1.15,0,2.21.23,3.17.69.96.46,1.76,1.1,2.4,1.93l-1.08,1.08c-.49-.72-1.12-1.27-1.9-1.65-.78-.38-1.65-.57-2.59-.57-1.11,0-2.09.25-2.95.76-.86.51-1.53,1.2-2.01,2.09s-.72,1.9-.72,3.05.24,2.15.72,3.03,1.14,1.58,1.97,2.09,1.79.76,2.86.76,1.99-.21,2.76-.64c.77-.43,1.38-1.05,1.81-1.87.43-.82.64-1.8.64-2.95l.87.64h-6.23v-1.39h6.96v.23c0,1.61-.29,2.97-.86,4.08s-1.37,1.96-2.39,2.53c-1.02.57-2.19.85-3.52.85Z"/>
    <path class="cls-1" d="M148.63,170.92v-14.3h1.54v14.3h-1.54Z"/>
    <path class="cls-1" d="M164.2,170.92v-14.3h1.1l.44,1.81v12.49h-1.54ZM174.09,170.92l-9.02-12.26.23-2.04,9.02,12.26-.23,2.04ZM174.09,170.92l-.44-1.72v-12.57h1.54v14.3h-1.1Z"/>
    <path class="cls-1" d="M189.2,170.92v-14.3h1.54v14.3h-1.54ZM190.21,158.01v-1.39h8.29v1.39h-8.29ZM190.21,164.27v-1.35h7.75v1.35h-7.75ZM190.21,170.92v-1.39h8.42v1.39h-8.42Z"/>
  </g>
  <g>
    <polygon class="cls-2" points="83.3 40.86 54.01 40.86 32.96 73.12 32.96 4.25 6.27 4.25 6.27 115.44 32.96 115.44 32.96 79.97 54.16 115.44 84.82 115.44 57.99 75.88 83.3 40.86"/>
    <rect class="cls-2" x="89.24" y="40.86" width="26.69" height="74.59"/>
    <polygon class="cls-2" points="207.75 81.66 195.25 40.86 171.46 40.86 159.12 81.53 148.58 40.86 122.95 40.86 146.6 115.44 170.24 115.44 183.54 73.54 196.47 115.44 220.42 115.44 244.06 40.86 218.44 40.86 207.75 81.66"/>
    <rect class="cls-2" x="248.64" y="40.86" width="26.69" height="74.59"/>
  </g>
  <circle class="cls-1" cx="102.5" cy="17.97" r="14.09"/>
  <circle class="cls-1" cx="262.41" cy="17.97" r="14.09"/>
</svg>