<?xml version="1.0" encoding="UTF-8"?>
<svg id="Livello_1" data-name="Livello 1" xmlns="http://www.w3.org/2000/svg" viewBox="0 0 512 512">
  <defs>
    <style>
      .cls-1 {
        fill: #f4f4cc;
      }

      .cls-2 {
        fill: #6f4e27;
      }

      .cls-3 {
        fill: #a6c720;
      }
    </style>
  </defs>
  <path class="cls-2" d="M465.48,227.89l42.71-7.34-7.58-47.06-42.97,6.14c-9.72-26.54-27.41-46.95-49.77-62.1l15.17-39.78-44.89-17.08-15.32,39.52c-20.16-3.34-39.74-1.82-59.38,4.24l-20.89-37.28-41.94,23.39,20.31,37.45c-13.84,12.11-24.31,25.96-32.12,42.45l-61.52-8.24c-8.05-49.64-56.88-79.52-104.04-66.08C17.03,109.3-8.78,160.6,9.98,205.92c13.14,31.09,42.39,51.31,76.67,51.08l23.35,77.36c-30.36,17.06-40.64,54.2-24.86,83.95,15.58,29.34,52.02,41.47,82.24,26.77,29.89-14.55,43.82-50.2,29.59-82.28l65.25-44.59c15.98,11.71,32.78,21.42,52.98,25.21l.08,43.82,47.87.62.75-43.72c19.81-3.44,37.1-12.01,53.35-23.54l33.43,28.16,31.07-36.25-32.51-28.65c9.57-18.02,14.96-36.1,16.24-55.98ZM93.82,232.73c-31.22,4.26-60.67-17.4-65.35-48.77-4.73-31.67,16.03-61.95,49.47-66.79,32.74-4.77,61.88,18.77,65.99,49.75,4.28,32.25-17.91,61.42-50.1,65.82ZM145.87,428.89c-21.93,2.91-42.2-11.38-45.54-33.64-3.17-21.19,10.7-42.73,34.19-46.01,22.73-3.17,42.61,12.93,45.49,33.89,3.1,22.38-12.11,42.84-34.13,45.77ZM176.6,338.12c-11.41-7.02-22.15-11.62-35.93-11.32l-16.13-79.35c14.36-7.75,24.89-18.23,32.97-31.88l60.07,13.76c1.37,18.12,5.63,34.9,14.62,51.44l-55.61,57.35ZM384.36,297.91c-40.68,22.98-89.38,11.66-116.09-25.55-29.21-40.72-17.83-97.06,23.11-124.26,41.43-27.5,97.51-15.32,123.88,26.7,26.04,41.45,13.05,98.28-30.9,123.11Z"/>
  <path class="cls-3" d="M415.26,174.8c-26.38-42.01-82.45-54.2-123.88-26.7-40.94,27.2-52.32,83.54-23.11,124.26,26.71,37.21,75.41,48.53,116.09,25.55,43.95-24.84,56.94-81.66,30.9-123.11ZM346.03,258.05c-19.73,2.95-38.43-9.54-42.16-29.77-3.62-19.62,8.73-39.54,30.24-43.42,21.03-3.81,39.76,11.26,42.9,30.66,3.3,20.39-10.44,39.48-30.98,42.54Z"/>
  <path class="cls-3" d="M143.92,166.91c-4.11-30.98-33.25-54.52-65.99-49.75-33.43,4.84-54.2,35.12-49.47,66.79,4.67,31.37,34.13,53.03,65.35,48.77,32.2-4.39,54.39-33.57,50.1-65.82ZM93.89,198.83c-12.3,4.05-27.28-2.23-31.52-15.81-3.92-12.52,1.09-27.07,15.56-31.75,14.38-4.64,28.38,2.78,32.5,16.52,3.74,12.47-3.02,26.56-16.54,31.03Z"/>
  <path class="cls-3" d="M180,383.12c-2.87-20.95-22.75-37.06-45.49-33.89-23.48,3.29-37.36,24.82-34.19,46.01,3.34,22.26,23.62,36.55,45.54,33.64,22.02-2.93,37.23-23.39,34.13-45.77ZM141.44,405.63c-9.91.66-16.95-6.51-17.65-14.98-.81-9.71,5.41-17.87,15.96-18.28,9.69-.38,17.16,7.92,17.25,15.96.09,9.65-7.21,16.75-15.56,17.31Z"/>
  <path class="cls-1" d="M346.03,258.05c-19.73,2.95-38.43-9.54-42.16-29.77-3.62-19.62,8.73-39.54,30.24-43.42,21.03-3.81,39.76,11.26,42.9,30.66,3.3,20.39-10.44,39.48-30.98,42.54Z"/>
  <path class="cls-1" d="M93.89,198.83c-12.3,4.05-27.28-2.23-31.52-15.81-3.92-12.52,1.09-27.07,15.56-31.75,14.38-4.64,28.38,2.78,32.5,16.52,3.74,12.47-3.02,26.56-16.54,31.03Z"/>
  <path class="cls-1" d="M157,388.32c.09,9.65-7.21,16.75-15.56,17.31-9.91.66-16.95-6.51-17.65-14.98-.81-9.71,5.41-17.87,15.96-18.28,9.69-.38,17.16,7.92,17.25,15.96Z"/>
</svg>