<?xml version="1.0" encoding="UTF-8"?>
<svg id="Livello_1" data-name="Livello 1" xmlns="http://www.w3.org/2000/svg" viewBox="0 0 1080 371.95">
  <defs>
    <style>
      .cls-1 {
        fill: #f4f4cc;
      }

      .cls-2, .cls-3 {
        fill: #6f4e27;
      }

      .cls-4 {
        fill: #a6c720;
      }

      .cls-3 {
        font-family: Outfit-Light, Outfit;
        font-size: 37.97px;
        font-variation-settings: 'wght' 300;
        font-weight: 300;
        letter-spacing: .5em;
      }
    </style>
  </defs>
  <g>
    <path class="cls-2" d="M441.83,159.82l39.73-6.83-7.05-43.78-39.97,5.71c-9.05-24.69-25.49-43.67-46.29-57.77l14.11-37-41.75-15.89-14.25,36.76c-18.75-3.11-36.97-1.69-55.23,3.95l-19.44-34.68-39.01,21.76,18.89,34.84c-12.87,11.26-22.61,24.15-29.88,39.48l-57.22-7.67c-7.49-46.17-52.91-73.97-96.78-61.47C24.7,49.51.68,97.24,18.13,139.39c12.22,28.92,39.43,47.72,71.32,47.51l21.72,71.96c-28.24,15.87-37.81,50.41-23.12,78.09,14.49,27.29,48.39,38.57,76.5,24.9,27.8-13.53,40.76-46.69,27.52-76.54l60.7-41.47c14.86,10.9,30.49,19.92,49.28,23.45l.07,40.76,44.53.58.7-40.67c18.42-3.2,34.51-11.18,49.63-21.9l31.1,26.19,28.9-33.72-30.24-26.65c8.91-16.76,13.92-33.58,15.1-52.07ZM96.12,164.33c-29.04,3.96-56.44-16.19-60.79-45.37-4.4-29.46,14.91-57.63,46.01-62.13,30.45-4.44,57.56,17.46,61.38,46.28,3.98,30-16.66,57.14-46.61,61.22ZM144.54,346.79c-20.4,2.71-39.26-10.58-42.36-31.29-2.95-19.71,9.95-39.74,31.8-42.8,21.15-2.95,39.64,12.03,42.31,31.52,2.88,20.82-11.26,39.85-31.75,42.57ZM173.12,262.36c-10.62-6.53-20.61-10.81-33.42-10.53l-15-73.81c13.36-7.21,23.16-16.96,30.66-29.65l55.88,12.8c1.27,16.85,5.24,32.46,13.6,47.85l-51.72,53.35ZM366.38,224.96c-37.84,21.37-83.14,10.84-107.99-23.77-27.17-37.88-16.59-90.28,21.5-115.58,38.54-25.58,90.7-14.25,115.23,24.83,24.22,38.56,12.14,91.42-28.74,114.52Z"/>
    <path class="cls-4" d="M395.12,110.44c-24.53-39.08-76.69-50.41-115.23-24.83-38.09,25.3-48.67,77.71-21.5,115.58,24.85,34.61,70.15,45.14,107.99,23.77,40.88-23.1,52.96-75.96,28.74-114.52ZM330.72,187.88c-18.35,2.74-35.75-8.87-39.22-27.7-3.37-18.25,8.12-36.78,28.13-40.39,19.56-3.54,36.99,10.48,39.9,28.52,3.07,18.96-9.71,36.72-28.81,39.57Z"/>
    <path class="cls-4" d="M142.72,103.11c-3.82-28.81-30.93-50.71-61.38-46.28-31.1,4.51-50.41,32.67-46.01,62.13,4.35,29.18,31.75,49.33,60.79,45.37,29.95-4.09,50.59-31.22,46.61-61.22ZM96.19,132.79c-11.44,3.77-25.37-2.08-29.32-14.7-3.65-11.65,1.01-25.18,14.48-29.53,13.38-4.31,26.4,2.58,30.23,15.37,3.48,11.59-2.81,24.71-15.38,28.87Z"/>
    <path class="cls-4" d="M176.29,304.22c-2.67-19.49-21.16-34.47-42.31-31.52-21.85,3.06-34.75,23.09-31.8,42.8,3.11,20.71,21.97,34,42.36,31.29,20.48-2.72,34.63-21.76,31.75-42.57ZM140.42,325.16c-9.22.61-15.77-6.06-16.41-13.93-.75-9.03,5.03-16.62,14.84-17.01,9.01-.35,15.96,7.37,16.05,14.84.09,8.98-6.71,15.58-14.48,16.1Z"/>
    <path class="cls-1" d="M330.72,187.88c-18.35,2.74-35.75-8.87-39.22-27.7-3.37-18.25,8.12-36.78,28.13-40.39,19.56-3.54,36.99,10.48,39.9,28.52,3.07,18.96-9.71,36.72-28.81,39.57Z"/>
    <path class="cls-1" d="M96.19,132.79c-11.44,3.77-25.37-2.08-29.32-14.7-3.65-11.65,1.01-25.18,14.48-29.53,13.38-4.31,26.4,2.58,30.23,15.37,3.48,11.59-2.81,24.71-15.38,28.87Z"/>
    <path class="cls-1" d="M154.89,309.06c.09,8.98-6.71,15.58-14.48,16.1-9.22.61-15.77-6.06-16.41-13.93-.75-9.03,5.03-16.62,14.84-17.01,9.01-.35,15.96,7.37,16.05,14.84Z"/>
  </g>
  <text class="cls-3" transform="translate(695.29 349.59)"><tspan x="0" y="0">ENGINE</tspan></text>
  <g>
    <polygon class="cls-4" points="714.58 111.93 661.07 111.93 622.6 170.89 622.6 45.04 573.83 45.04 573.83 248.22 622.6 248.22 622.6 183.4 661.34 248.22 717.37 248.22 668.34 175.94 714.58 111.93"/>
    <rect class="cls-4" x="725.45" y="111.93" width="48.78" height="136.29"/>
    <polygon class="cls-4" points="941.98 186.5 919.15 111.93 875.67 111.93 853.13 186.25 833.87 111.93 787.04 111.93 830.24 248.22 873.44 248.22 897.75 171.66 921.38 248.22 965.14 248.22 1008.34 111.93 961.52 111.93 941.98 186.5"/>
    <rect class="cls-4" x="1016.7" y="111.93" width="48.78" height="136.29"/>
  </g>
  <circle class="cls-2" cx="749.66" cy="70.12" r="25.75"/>
  <circle class="cls-2" cx="1041.86" cy="70.12" r="25.75"/>
</svg>