<?xml version="1.0" encoding="UTF-8"?>
<svg id="Livello_1" data-name="Livello 1" xmlns="http://www.w3.org/2000/svg" viewBox="0 0 268.67 208.11">
  <defs>
    <style>
      .cls-1 {
        fill: #f4f4cc;
      }

      .cls-2 {
        fill: #6f4e27;
      }

      .cls-3 {
        fill: #a6c720;
      }
    </style>
  </defs>
  <path class="cls-2" d="M242.25,89.57l22-3.78-3.91-24.24-22.14,3.16c-5.01-13.67-14.12-24.19-25.64-31.99l7.81-20.49-23.12-8.8-7.89,20.36c-10.39-1.72-20.47-.94-30.59,2.19l-10.76-19.21-21.6,12.05,10.46,19.29c-7.13,6.24-12.52,13.37-16.55,21.87l-31.69-4.25c-4.15-25.57-29.3-40.97-53.6-34.04C11.24,28.48-2.06,54.91,7.6,78.26c6.77,16.01,21.84,26.43,39.5,26.31l12.03,39.85c-15.64,8.79-20.94,27.92-12.8,43.25,8.03,15.12,26.8,21.36,42.37,13.79,15.4-7.49,22.57-25.86,15.24-42.39l33.62-22.97c8.23,6.03,16.89,11.03,27.29,12.99l.04,22.57,24.66.32.39-22.52c10.2-1.77,19.11-6.19,27.48-12.13l17.22,14.51,16.01-18.67-16.75-14.76c4.93-9.28,7.71-18.6,8.37-28.84ZM50.79,92.07c-16.08,2.2-31.26-8.96-33.66-25.12-2.44-16.31,8.26-31.91,25.48-34.41,16.87-2.46,31.87,9.67,33.99,25.63,2.2,16.61-9.23,31.64-25.81,33.91ZM77.61,193.12c-11.3,1.5-21.74-5.86-23.46-17.33-1.63-10.92,5.51-22.01,17.61-23.7,11.71-1.63,21.95,6.66,23.43,17.46,1.6,11.53-6.24,22.07-17.58,23.58ZM93.44,146.36c-5.88-3.62-11.41-5.99-18.51-5.83l-8.31-40.88c7.4-3.99,12.82-9.39,16.98-16.42l30.95,7.09c.71,9.33,2.9,17.98,7.53,26.5l-28.64,29.54ZM200.46,125.65c-20.96,11.84-46.04,6.01-59.8-13.16-15.05-20.98-9.19-50,11.9-64.01,21.34-14.17,50.23-7.89,63.82,13.75,13.41,21.35,6.72,50.63-15.92,63.42Z"/>
  <path class="cls-3" d="M216.38,62.22c-13.59-21.64-42.47-27.92-63.82-13.75-21.09,14.01-26.95,43.03-11.9,64.01,13.76,19.17,38.85,25,59.8,13.16,22.64-12.79,29.33-42.07,15.92-63.42ZM180.72,105.11c-10.16,1.52-19.8-4.91-21.72-15.34-1.87-10.11,4.5-20.37,15.58-22.37,10.83-1.96,20.48,5.8,22.1,15.79,1.7,10.5-5.38,20.34-15.96,21.91Z"/>
  <path class="cls-3" d="M76.6,58.16c-2.12-15.96-17.13-28.08-33.99-25.63-17.22,2.5-27.92,18.09-25.48,34.41,2.41,16.16,17.58,27.32,33.66,25.12,16.59-2.26,28.02-17.29,25.81-33.91ZM50.83,74.6c-6.33,2.09-14.05-1.15-16.24-8.14-2.02-6.45.56-13.95,8.02-16.35,7.41-2.39,14.62,1.43,16.74,8.51,1.92,6.42-1.56,13.68-8.52,15.99Z"/>
  <path class="cls-3" d="M95.19,169.54c-1.48-10.79-11.72-19.09-23.43-17.46-12.1,1.69-19.24,12.78-17.61,23.7,1.72,11.47,12.17,18.83,23.46,17.33,11.34-1.51,19.18-12.05,17.58-23.58ZM75.32,181.14c-5.11.34-8.73-3.36-9.09-7.72-.42-5,2.79-9.21,8.22-9.42,4.99-.19,8.84,4.08,8.89,8.22.05,4.97-3.71,8.63-8.02,8.92Z"/>
  <path class="cls-1" d="M180.72,105.11c-10.16,1.52-19.8-4.91-21.72-15.34-1.87-10.11,4.5-20.37,15.58-22.37,10.83-1.96,20.48,5.8,22.1,15.79,1.7,10.5-5.38,20.34-15.96,21.91Z"/>
  <path class="cls-1" d="M50.83,74.6c-6.33,2.09-14.05-1.15-16.24-8.14-2.02-6.45.56-13.95,8.02-16.35,7.41-2.39,14.62,1.43,16.74,8.51,1.92,6.42-1.56,13.68-8.52,15.99Z"/>
  <path class="cls-1" d="M83.34,172.22c.05,4.97-3.71,8.63-8.02,8.92-5.11.34-8.73-3.36-9.09-7.72-.42-5,2.79-9.21,8.22-9.42,4.99-.19,8.84,4.08,8.89,8.22Z"/>
</svg>